:FULLY-SPECIFIED
:FORCE-ALL-JOINTS-BE-3DOF
:DEGREES
97
root 9.28866 16.2583 -23.5145 4.54999 -2.74761 3.49139
lfemur -4.0754 2.14057 -27.4296
ltibia 18.0163 0 0
lfoot -15.4175 6.10449 0
ltoes -2.80498 0 0
rfemur -30.0805 4.60682 13.6449
rtibia 49.316 0 0
rfoot -19.5144 -12.8079 0
rtoes -14.5277 0 0
lowerback -6.17551 -2.08726 -4.77588
upperback -1.39251 -2.50869 2.40627
thorax 2.35857 -1.2942 4.93158
lowerneck -21.3931 -4.4568 -12.2198
upperneck 20.2447 -5.1419 11.6524
head 10.6829 -1.93805 5.48135
lclavicle -2.92456e-14 -4.42174e-15 0
lhumerus -27.6973 -17.5152 90.325
lradius 31.6047 0 0
lwrist 4.90239 0 0
lhand -10.4244 -23.4398 0
lfingers 7.12502 0 0
lthumb 15.5749 5.95249 0
rclavicle -2.92456e-14 -4.42174e-15 0
rhumerus -44.9546 11.4281 -86.9272
rradius 37.8468 0 0
rwrist -20.5267 0 0
rhand -30.3589 -23.2286 0
rfingers 7.12502 0 0
rthumb -3.66399 -53.1764 0
98
root 9.28616 16.2493 -23.3855 4.58202 -2.41095 3.56194
lfemur -3.26779 2.10101 -27.4377
ltibia 17.349 0 0
lfoot -15.4177 5.87759 0
ltoes -2.93812 0 0
rfemur -30.5389 4.85408 13.3212
rtibia 48.4548 0 0
rfoot -19.6887 -12.8233 0
rtoes -14.7896 0 0
lowerback -6.25746 -2.14985 -4.83776
upperback -1.38462 -2.58332 2.39501
thorax 2.42459 -1.33385 4.94394
lowerneck -21.3243 -4.49077 -12.2587
upperneck 20.2803 -5.18299 11.6314
head 10.6893 -1.96453 5.47457
lclavicle -2.99022e-14 -4.96476e-15 0
lhumerus -27.7612 -17.8368 90.5525
lradius 31.9423 0 0
lwrist 5.11407 0 0
lhand -10.4495 -23.4724 0
lfingers 7.12502 0 0
lthumb 15.5507 5.92169 0
rclavicle -2.99022e-14 -4.96476e-15 0
rhumerus -45.0333 11.2611 -86.7788
rradius 37.6916 0 0
rwrist -20.4408 0 0
rhand -30.3352 -23.2304 0
rfingers 7.12502 0 0
rthumb -3.64115 -53.1786 0
99
root 9.28367 16.2402 -23.2564 4.61406 -2.07429 3.63248
lfemur -2.46018 2.06146 -27.4459
ltibia 16.6818 0 0
lfoot -15.4178 5.6507 0
ltoes -3.07126 0 0
rfemur -30.9972 5.10135 12.9975
rtibia 47.5936 0 0
rfoot -19.863 -12.8386 0
rtoes -15.0515 0 0
lowerback -6.33941 -2.21244 -4.89964
upperback -1.37674 -2.65796 2.38374
thorax 2.49061 -1.3735 4.9563
lowerneck -21.2556 -4.52473 -12.2975
upperneck 20.316 -5.22409 11.6105
head 10.6957 -1.99102 5.4678
lclavicle -3.05589e-14 -5.50778e-15 0
lhumerus -27.8252 -18.1583 90.7799
lradius 32.2799 0 0
lwrist 5.32575 0 0
lhand -10.4745 -23.5051 0
lfingers 7.12502 0 0
lthumb 15.5266 5.89088 0
rclavicle -3.05589e-14 -5.50778e-15 0
rhumerus -45.112 11.094 -86.6305
rradius 37.5364 0 0
rwrist -20.3549 0 0
rhand -30.3116 -23.2323 0
rfingers 7.12502 0 0
rthumb -3.61831 -53.1808 0
100
root 9.28117 16.2312 -23.1274 4.6461 -1.73763 3.70303
lfemur -1.65258 2.0219 -27.454
ltibia 16.0145 0 0
lfoot -15.4179 5.4238 0
ltoes -3.2044 0 0
rfemur -31.4555 5.34861 12.6738
rtibia 46.7324 0 0
rfoot -20.0373 -12.8539 0
rtoes -15.3135 0 0
lowerback -6.42136 -2.27503 -4.96152
upperback -1.36885 -2.73259 2.37247
thorax 2.55663 -1.41316 4.96866
lowerneck -21.1868 -4.55869 -12.3364
upperneck 20.3517 -5.26518 11.5895
head 10.7021 -2.01751 5.46102
lclavicle -3.12156e-14 -6.0508e-15 0
lhumerus -27.8891 -18.4798 91.0074
lradius 32.6175 0 0
lwrist 5.53743 0 0
lhand -10.4996 -23.5378 0
lfingers 7.12502 0 0
lthumb 15.5025 5.86008 0
rclavicle -3.12156e-14 -6.0508e-15 0
rhumerus -45.1907 10.927 -86.4821
rradius 37.3812 0 0
rwrist -20.269 0 0
rhand -30.2879 -23.2341 0
rfingers 7.12502 0 0
rthumb -3.59547 -53.183 0
101
root 9.27868 16.2222 -22.9984 4.67813 -1.40097 3.77357
lfemur -0.844968 1.98235 -27.4621
ltibia 15.3472 0 0
lfoot -15.4181 5.19691 0
ltoes -3.33754 0 0
rfemur -31.9138 5.59587 12.3501
rtibia 45.8712 0 0
rfoot -20.2116 -12.8693 0
rtoes -15.5754 0 0
lowerback -6.5033 -2.33762 -5.02339
upperback -1.36096 -2.80723 2.3612
thorax 2.62266 -1.45281 4.98102
lowerneck -21.1181 -4.59266 -12.3752
upperneck 20.3873 -5.30627 11.5685
head 10.7086 -2.04399 5.45425
lclavicle -3.18722e-14 -6.59382e-15 0
lhumerus -27.9531 -18.8013 91.2349
lradius 32.9551 0 0
lwrist 5.7491 0 0
lhand -10.5246 -23.5704 0
lfingers 7.12502 0 0
lthumb 15.4784 5.82928 0
rclavicle -3.18722e-14 -6.59382e-15 0
rhumerus -45.2695 10.76 -86.3337
rradius 37.226 0 0
rwrist -20.1831 0 0
rhand -30.2643 -23.2359 0
rfingers 7.12502 0 0
rthumb -3.57263 -53.1852 0
102
root 9.27618 16.2131 -22.8693 4.71017 -1.06431 3.84412
lfemur -0.037361 1.94279 -27.4702
ltibia 14.68 0 0
lfoot -15.4182 4.97001 0
ltoes -3.47068 0 0
rfemur -32.3721 5.84313 12.0264
rtibia 45.01 0 0
rfoot -20.3859 -12.8846 0
rtoes -15.8373 0 0
lowerback -6.58525 -2.40021 -5.08527
upperback -1.35307 -2.88186 2.34994
thorax 2.68868 -1.49247 4.99338
lowerneck -21.0493 -4.62662 -12.4141
upperneck 20.423 -5.34736 11.5475
head 10.715 -2.07048 5.44747
lclavicle -3.25289e-14 -7.13684e-15 0
lhumerus -28.017 -19.1228 91.4623
lradius 33.2927 0 0
lwrist 5.96078 0 0
lhand -10.5496 -23.6031 0
lfingers 7.12502 0 0
lthumb 15.4543 5.79848 0
rclavicle -3.25289e-14 -7.13684e-15 0
rhumerus -45.3482 10.5929 -86.1853
rradius 37.0708 0 0
rwrist -20.0972 0 0
rhand -30.2406 -23.2378 0
rfingers 7.12502 0 0
rthumb -3.54979 -53.1874 0
103
root 9.27369 16.2041 -22.7403 4.74221 -0.72765 3.91467
lfemur 0.770246 1.90324 -27.4783
ltibia 14.0127 0 0
lfoot -15.4184 4.74312 0
ltoes -3.60382 0 0
rfemur -32.8304 6.09039 11.7027
rtibia 44.1488 0 0
rfoot -20.5602 -12.9 0
rtoes -16.0992 0 0
lowerback -6.6672 -2.4628 -5.14715
upperback -1.34518 -2.95649 2.33867
thorax 2.7547 -1.53212 5.00574
lowerneck -20.9806 -4.66058 -12.453
upperneck 20.4586 -5.38845 11.5265
head 10.7214 -2.09696 5.4407
lclavicle -3.31855e-14 -7.67986e-15 0
lhumerus -28.081 -19.4443 91.6898
lradius 33.6303 0 0
lwrist 6.17246 0 0
lhand -10.5747 -23.6357 0
lfingers 7.12502 0 0
lthumb 15.4302 5.76768 0
rclavicle -3.31855e-14 -7.67986e-15 0
rhumerus -45.4269 10.4259 -86.0369
rradius 36.9156 0 0
rwrist -20.0113 0 0
rhand -30.217 -23.2396 0
rfingers 7.12502 0 0
rthumb -3.52695 -53.1896 0
